<?xml version="1.0" standalone="no"?><!-- Generator: Gravit.io --><svg xmlns="http://www.w3.org/2000/svg" xmlns:xlink="http://www.w3.org/1999/xlink" style="isolation:isolate" width="600" height="600"><path d="M 251.61111111111552 366 L 299.25 283.5 L 385 135 L 213.5 135 L 42 135 L 127.75 283.5 L 175.38888888889443 366 L 251.61111111111552 366 Z M 306.87222222221914 234 L 316.399999999998 217.5 L 333.549999999996 187.8 L 299.25 187.8 L 264.950000000004 187.8 L 282.10000000000207 217.50000000000003 L 291.62777777778086 234 L 306.87222222221914 234 Z" style="stroke:none;fill:#000000;stroke-miterlimit:10;opacity:0.77;fill-rule:evenodd;"/><path d="M 347.3888888888845 234 L 299.75 316.5 L 214 465 L 385.5 465 L 557 465 L 471.24999999999994 316.5 L 423.6111111111055 233.99999999999994 L 347.3888888888845 234 Z M 307.3722222222191 366 L 316.89999999999793 382.5 L 334.0499999999959 412.19999999999993 L 299.74999999999994 412.19999999999993 L 265.450000000004 412.2 L 282.60000000000196 382.5 L 292.12777777778086 366 L 307.3722222222191 366 Z" style="stroke:none;fill:#000000;stroke-miterlimit:10;opacity:0.77;fill-rule:evenodd;"/></svg>